<svg version="1.2" xmlns="http://www.w3.org/2000/svg" viewBox="0 0 453 128" width="453" height="128">
    <style>
    .a{fill:#262626}
    .b{fill:#5d5d5d} 
    </style>
    <path d="m115.2 17.7l54.1 14.5-14.5 54.1-54.1-14.5z"/>
    <path class="a" d="m52.3 32.3l26.4 7-7 26.4-26.4-7z"/>
    <path class="b" d="m14.7 71.1l17.2 4.6-4.6 17.2-17.2-4.6z"/>
    <path class="a" d="m63.3 75.3l26.4 7-7 26.4-26.4-7z"/>
    <path d="m231.9 81h-26v-5.1h9v-23.2q0-1.7-1.7-1.7h-6.3v-5.1h8.5q2.4 0 3.8 1.2 1.4 1.3 1.4 3.8v1.5h0.3q0.8-3.6 3.2-5.5 2.4-1.9 6.6-1.9h6.5v6.3h-7.3q-4.3 0-6.7 2.9-2.3 2.9-2.3 7.3v14.4h11zm32.2 0.9q-5 0-8.8-2.3-3.7-2.4-5.9-6.5-2.2-4.1-2.2-9.7 0-5.5 2.1-9.6 2.2-4.2 6-6.4 3.8-2.4 8.9-2.4 5.1 0 8.8 2.4 3.6 2.2 5.5 6 1.9 3.7 1.9 8.1 0 0.7-0.1 1.5 0 0.8 0 1.8h-27.3q0.3 3.9 1.8 6.5 1.6 2.5 4.1 3.8 2.4 1.3 5.2 1.3 3.9 0 6.1-1.6 2.2-1.7 3.3-4.6h5.9q-1.2 4.9-5 8.3-3.9 3.4-10.3 3.4zm0-31.6q-4.1 0-7.2 2.5-3.1 2.5-3.8 7h21.4q-0.3-4.4-3.2-6.9-2.8-2.6-7.2-2.6zm56.1 30.7h-29.9v-5.1h12v-39q0-1.8-1.8-1.8h-8.9v-5.1h10.3q3.1 0 4.7 1.6 1.6 1.7 1.6 4.7v39.6h12zm25.6 0.9q-4.2 0-7-1.5-2.7-1.5-4.1-3.9-1.3-2.5-1.3-5.4 0-5.4 3.9-8.2 3.9-2.8 10.5-2.8h9.6v-0.7q0-9.2-8.4-9.2-3.4 0-5.7 1.5-2.3 1.5-2.9 4.7h-6.1q0.3-3.6 2.3-6.1 2.1-2.6 5.3-3.9 3.2-1.4 7.1-1.4 7.5 0 10.9 4 3.5 3.9 3.5 10.4v21.6h-5.1l-0.5-5.5h-0.5q-1.6 2.6-4.2 4.5-2.5 1.9-7.3 1.9zm1-5.3q3.4 0 5.8-1.6 2.4-1.6 3.6-4.3 1.2-2.7 1.2-5.9h-9.1q-4.8 0-6.8 1.6-1.9 1.6-1.9 4.3 0 2.8 1.8 4.4 1.9 1.5 5.4 1.5zm40 20h-6.3l8.7-19h-2.1l-13.9-31.7h6.5l11.5 27.2 12.2-27.2h6.2z"/>
</svg>